<?xml version="1.0" encoding="UTF-8"?>
<svg width="50pt" height="50pt" version="1.1" viewBox="0 0 700 700" xmlns="http://www.w3.org/2000/svg">
 <path d="m241.69 109.09c-5.2539-5.3828-14.059-3.4258-16.66 3.5273-6.0273 16.105-21.332 61.926-21.332 112.68 0 3.2227 2.6133 5.832 5.832 5.832 3.2227 0 5.8359-2.6094 5.8359-5.832 0-46.438 13.414-88.867 19.723-106.23 10.418 11.008 30.656 35.363 38.816 65.34 0.84375 3.1094 4.0508 4.9453 7.1602 4.0977 3.1055-0.84375 4.9414-4.0508 4.0938-7.1602-9.4375-34.68-33.348-61.875-43.469-72.246zm102.48 60.152c-3.9219 0.10547-7.8125 0.3125-11.668 0.62109v22.637c0 3.2227-2.6094 5.832-5.832 5.832-3.2227 0-5.8359-2.6094-5.8359-5.832v-21.383c-9.4727 1.2812-18.699 3.1758-27.613 5.6328-3.1055 0.85938-6.3203-0.96484-7.1758-4.0703-0.85547-3.1055 0.96875-6.3203 4.0742-7.1758 18.859-5.1992 38.988-8.0039 59.883-8.0039s41.023 2.8047 59.887 8.0039c3.1055 0.85547 4.9258 4.0703 4.0703 7.1758-0.85547 3.1055-4.0703 4.9297-7.1758 4.0703-8.9141-2.457-18.141-4.3516-27.613-5.6328v21.383c0 3.2227-2.6133 5.832-5.8359 5.832-3.2227 0-5.832-2.6094-5.832-5.832v-22.637c-3.8555-0.30859-7.7461-0.51562-11.668-0.62109v34.926c0 3.2188-2.6094 5.832-5.832 5.832s-5.832-2.6133-5.832-5.832zm-142.97 65.191c2.0508-2.4844 1.6992-6.1602-0.78516-8.2109-2.4844-2.0547-6.1602-1.7031-8.2109 0.78125-21.816 26.418-34.703 58.734-34.703 93.828h-17.5c-3.2227 0-5.832 2.6133-5.832 5.8359 0 3.2227 2.6094 5.832 5.832 5.832h18.25c0.53125 4.0469 1.3477 8.0469 2.4727 11.973l-21.309 2.9961c-3.1914 0.44922-5.4141 3.3984-4.9648 6.5859 0.44922 3.1914 3.3984 5.4141 6.5898 4.9648l23.816-3.3477c6.7891 14.832 18.52 28.316 36.219 39.379 30.5 19.062 78.434 30.781 148.93 30.781s118.43-11.719 148.93-30.781c17.699-11.062 29.434-24.547 36.219-39.379l23.82 3.3477c3.1875 0.44922 6.1367-1.7734 6.5859-4.9648 0.44922-3.1875-1.7734-6.1367-4.9648-6.5859l-21.309-2.9961c1.1211-3.9258 1.9414-7.9258 2.4727-11.973h18.25c3.2227 0 5.832-2.6094 5.832-5.832 0-3.2227-2.6094-5.8359-5.832-5.8359h-17.5c0-35.094-12.891-67.41-34.703-93.828-2.0508-2.4844-5.7266-2.8359-8.2109-0.78125-2.4844 2.0508-2.8359 5.7266-0.78516 8.2109 20.258 24.527 32.031 54.27 32.031 86.398h-17.5c-3.2227 0-5.832 2.6133-5.832 5.8359 0 3.2227 2.6094 5.832 5.832 5.832h16.637c-0.53125 3.4922-1.3164 6.9375-2.375 10.332l-13.219-1.8594c-3.1914-0.44922-6.1406 1.7734-6.5898 4.9648-0.44922 3.1914 1.7734 6.1406 4.9648 6.5898l10.242 1.4375c-6.0312 11.555-15.812 22.168-30.25 31.195-27.836 17.395-73.234 29.008-142.74 29.008s-114.91-11.613-142.74-29.008c-14.438-9.0273-24.219-19.641-30.254-31.195l10.246-1.4375c3.1914-0.44922 5.4141-3.3984 4.9648-6.5898-0.44922-3.1914-3.3984-5.4141-6.5898-4.9648l-13.219 1.8594c-1.0586-3.3945-1.8438-6.8398-2.375-10.332h16.637c3.2188 0 5.832-2.6094 5.832-5.832 0-3.2227-2.6133-5.8359-5.832-5.8359h-17.5c0-32.129 11.773-61.871 32.031-86.398zm273.77-121.82c-2.6055-6.9531-11.406-8.9102-16.66-3.5273-10.121 10.371-34.031 37.566-43.469 72.246-0.84766 3.1094 0.98438 6.3164 4.0977 7.1602 3.1055 0.84766 6.3125-0.98828 7.1562-4.0977 8.1602-29.977 28.398-54.332 38.816-65.34 6.3086 17.367 19.723 59.797 19.723 106.23 0 3.2227 2.6133 5.832 5.832 5.832 3.2227 0 5.8359-2.6094 5.8359-5.832 0-50.75-15.305-96.57-21.332-112.68zm-124.97 179.05c12.887 0 23.332 3.4805 23.332 7.7773 0 3.625-7.4336 12.203-17.5 14.797v26.32l14.895-7.4453c2.8789-1.4414 6.3828-0.27344 7.8281 2.6094 1.4375 2.8789 0.26953 6.3828-2.6094 7.8281l-12.898 6.4492 12.898 6.4453c2.8789 1.4414 4.0469 4.9453 2.6094 7.8281-1.4453 2.8828-4.9492 4.0469-7.8281 2.6094l-20.723-10.363-20.727 10.363c-2.8828 1.4375-6.3867 0.27344-7.8281-2.6094-1.4414-2.8828-0.26953-6.3867 2.6094-7.8281l12.898-6.4453-12.898-6.4492c-2.8789-1.4453-4.0508-4.9492-2.6094-7.8281 1.4414-2.8828 4.9453-4.0508 7.8281-2.6094l14.891 7.4453v-26.32c-10.066-2.5938-17.5-11.172-17.5-14.797 0-4.2969 10.445-7.7773 23.332-7.7773zm-89.207-27.461c-2.2812-2.2773-5.9727-2.2773-8.25 0-2.2773 2.2812-2.2773 5.9727 0 8.25l7.5391 7.543-7.5391 7.543c-2.2773 2.2773-2.2773 5.9688 0 8.25 2.2773 2.2773 5.9688 2.2773 8.25 0l7.5391-7.543 7.543 7.543c2.2773 2.2773 5.9727 2.2773 8.25 0 2.2773-2.2812 2.2773-5.9727 0-8.25l-7.543-7.543 7.543-7.543c2.2773-2.2773 2.2773-5.9688 0-8.25-2.2773-2.2773-5.9727-2.2773-8.25 0l-7.543 7.543zm163.33 0c-2.2812-2.2773-5.9688-2.2773-8.25 0-2.2773 2.2812-2.2773 5.9727 0 8.25l7.5391 7.543-7.5391 7.543c-2.2773 2.2773-2.2773 5.9688 0 8.25 2.2812 2.2773 5.9688 2.2773 8.25 0l7.543-7.543 7.5391 7.543c2.2812 2.2773 5.9727 2.2773 8.25 0 2.2773-2.2812 2.2773-5.9727 0-8.25l-7.5391-7.543 7.5391-7.543c2.2773-2.2773 2.2773-5.9688 0-8.25-2.2773-2.2773-5.9688-2.2773-8.25 0l-7.5391 7.543z" fill-rule="evenodd"/>
</svg>
